<svg xmlns="http://www.w3.org/2000/svg" xmlns:xlink="http://www.w3.org/1999/xlink"><defs>
<clipPath id="clip0_2214_8">
<rect width="25" height="25" fill="white" transform="translate(0.333496)"/>
</clipPath>

<clipPath id="clip0_1941_1042">
<rect width="25" height="25" fill="white"/>
</clipPath>

<clipPath id="clip0_2836_160">
<rect width="24" height="24" fill="white"/>
</clipPath>

<clipPath id="clip0_131_4848">
<rect width="26" height="26" fill="white"/>
</clipPath>
</defs><symbol id="decor-button-icon" viewBox="0 0 56 56"><g fill="none">
<circle cx="28" cy="28" r="27.5" stroke="white"/>
<path d="M37 28L25 17V39L37 28Z" fill="white"/>
</g></symbol><symbol id="icon-arrow-left" viewBox="0 0 14 9"><g fill="none">
<path d="M0.646446 4.85355C0.451184 4.65829 0.451184 4.34171 0.646446 4.14645L3.82843 0.964466C4.02369 0.769204 4.34027 0.769204 4.53553 0.964466C4.7308 1.15973 4.7308 1.47631 4.53553 1.67157L1.70711 4.5L4.53553 7.32843C4.7308 7.52369 4.7308 7.84027 4.53553 8.03553C4.34027 8.2308 4.02369 8.2308 3.82843 8.03553L0.646446 4.85355ZM14 5H1V4H14V5Z" fill="white"/>
</g></symbol><symbol id="icon-arrow-right" viewBox="0 0 14 9"><g fill="none">
<path d="M13.3536 4.85355C13.5488 4.65829 13.5488 4.34171 13.3536 4.14645L10.1716 0.964466C9.97631 0.769204 9.65973 0.769204 9.46447 0.964466C9.2692 1.15973 9.2692 1.47631 9.46447 1.67157L12.2929 4.5L9.46447 7.32843C9.2692 7.52369 9.2692 7.84027 9.46447 8.03553C9.65973 8.2308 9.97631 8.2308 10.1716 8.03553L13.3536 4.85355ZM0 5H13V4H0V5Z" fill="white"/>
</g></symbol><symbol id="icon-boots-blue" viewBox="0 0 24 24"><g fill="none">
<path d="M22.5984 15.538C23.2763 13.2529 22.7185 10.6592 22.1258 8.86192C22.1219 8.79239 22.102 8.72499 22.0677 8.66594C21.8663 8.08214 21.6803 7.60259 21.5215 7.25649C21.8139 7.13118 22.0067 6.82792 22.0096 6.48921V3.01563C22.0096 2.55501 21.6627 2.18164 21.2348 2.18164H11.7171C11.5032 2.18122 11.3295 2.36757 11.3291 2.59791C11.3291 2.60651 11.3293 2.61511 11.3298 2.62366C11.4615 5.12564 11.291 6.82281 10.7991 8.01959C10.7893 8.03148 10.7802 8.04404 10.7719 8.05712C10.7705 8.07792 10.7705 8.09887 10.7719 8.11967C10.5842 8.55533 10.3302 8.95413 10.0205 9.29977L9.98559 9.32479C9.98559 9.32479 9.98559 9.32479 9.98559 9.35398C9.53144 9.82024 9.00767 10.2008 8.4361 10.4799C7.44027 10.9555 6.41829 11.3649 5.37587 11.7058L5.17831 11.7767C1.55639 13.0694 1.0838 15.4129 1.09155 16.5889C1.09058 16.6055 1.09058 16.6222 1.09155 16.6389V19.6163C1.09213 19.7612 1.16248 19.8953 1.27748 19.9707C2.16515 20.5521 3.12331 20.9983 4.12466 21.2968C4.3306 21.3591 4.54452 21.2299 4.60244 21.0082C4.61333 20.9664 4.61812 20.9231 4.61662 20.8798V20.7839H5.18606V21.2008C5.18359 21.4074 5.32203 21.5848 5.51145 21.6178C5.84846 21.6762 6.18548 21.7221 6.51474 21.7513C6.62263 21.761 6.72939 21.7217 6.80914 21.6429C6.88885 21.5633 6.93383 21.4513 6.9331 21.3343V20.8089H7.50254V21.401C7.50254 21.6313 7.67598 21.818 7.88991 21.818C8.2153 21.818 8.54069 21.818 8.88933 21.768C9.0911 21.7506 9.24634 21.5688 9.24571 21.351V20.8089H9.81514V21.1758C9.81238 21.4061 9.98355 21.5952 10.1975 21.5982C10.2199 21.5985 10.2423 21.5967 10.2645 21.5928C10.9756 21.4756 11.6765 21.2957 12.3602 21.0549L12.4222 21.0257C15.1337 19.3577 16.8537 20.7296 16.9234 20.788C16.991 20.8445 17.0741 20.8753 17.1597 20.8756H17.64C17.854 20.8756 18.0274 20.6889 18.0274 20.4586V19.7539H18.5814V20.4503C18.5814 20.6805 18.7548 20.8673 18.9687 20.8673H20.2161C20.43 20.8673 20.6034 20.6805 20.6034 20.4503V19.7539H21.1767V20.4503C21.1767 20.6805 21.3502 20.8673 21.5641 20.8673H22.5209C22.7348 20.8673 22.9083 20.6805 22.9083 20.4503V15.955C22.9121 15.7537 22.7817 15.5783 22.5984 15.538ZM13.4061 3.02397H21.2155V6.4767H13.4061V3.02397ZM8.53682 11.3389L8.54069 11.3639C8.85824 11.6414 9.15129 11.9499 9.41615 12.2855C9.34589 12.4112 9.30967 12.5557 9.31156 12.7025C9.3089 13.1423 9.63802 13.5012 10.0466 13.5041C10.4552 13.507 10.7886 13.1527 10.7913 12.7128C10.7938 12.2984 10.5007 11.9512 10.1173 11.9143C9.87228 11.5547 9.59313 11.2235 9.28445 10.9261C9.63061 10.714 9.95629 10.4653 10.2567 10.1838C10.6324 10.5632 10.982 10.9716 11.3026 11.4056C11.1679 11.8209 11.3714 12.2751 11.7571 12.4202C12.1429 12.5653 12.5648 12.3462 12.6996 11.931C12.8344 11.5157 12.6309 11.0615 12.2452 10.9164C12.1651 10.8863 12.0809 10.8712 11.996 10.8718H11.9031C11.5633 10.4114 11.1931 9.97796 10.7952 9.57499C10.9798 9.33026 11.1432 9.06787 11.2833 8.79104C11.883 9.12708 12.4626 9.50311 13.0187 9.91693C13.0149 10.3614 13.3465 10.725 13.7594 10.7291C14.1723 10.7332 14.5101 10.3762 14.5139 9.93178C14.5177 9.48731 14.1861 9.12369 13.7732 9.11958C13.6553 9.11838 13.5387 9.14725 13.4332 9.20386C12.8478 8.77727 12.2385 8.39015 11.6087 8.04461C12.0309 6.83532 12.213 5.22989 12.1277 3.04065H12.6352V6.49338C12.6352 6.95401 12.982 7.32738 13.4099 7.32738H20.6693C20.77 7.54839 20.9404 7.93202 21.1264 8.43242H20.9676C18.6143 8.45071 16.7204 10.5191 16.7374 13.0524C16.747 14.4919 17.3839 15.843 18.4574 16.7015C15.3236 17.5897 10.6093 18.6447 6.64257 18.3694C7.37471 15.2211 6.49925 13.2821 5.92981 12.4314C6.81655 12.1183 7.68683 11.7536 8.53682 11.3389ZM5.1512 12.6691C5.56956 13.1987 6.66194 14.9793 5.86009 18.2527C4.46429 18.1346 3.10864 17.6936 1.88566 16.96C1.87176 16.8647 1.86271 16.7686 1.85854 16.6723V16.6431C1.82755 15.7549 2.13745 13.8325 5.1512 12.6691ZM21.9515 20.0333V19.3369C21.9515 19.1066 21.778 18.9199 21.5641 18.9199H20.2199C20.006 18.9199 19.8326 19.1066 19.8326 19.3369V20.0333H19.3561V19.3369C19.3561 19.1066 19.1826 18.9199 18.9687 18.9199H17.6323C17.4184 18.9199 17.2449 19.1066 17.2449 19.3369V20.0166C16.7181 19.6621 14.7929 18.6322 12.0619 20.2751C11.576 20.4478 11.0805 20.587 10.5783 20.6921V20.4044C10.5783 20.1741 10.4048 19.9874 10.1909 19.9874H8.85446C8.64054 19.9874 8.46709 20.1741 8.46709 20.4044V20.9757H8.26953V20.3919C8.26953 20.1616 8.09609 19.9749 7.88216 19.9749H6.53798C6.32406 19.9749 6.15061 20.1616 6.15061 20.3919V20.8881L5.95305 20.8589V20.3919C5.95305 20.1616 5.77961 19.9749 5.56568 19.9749H4.22151C4.02448 19.9734 3.85776 20.1313 3.83413 20.3418C3.1466 20.0982 2.48453 19.7781 1.85854 19.3869V17.8941C3.54748 18.8573 5.73225 19.2201 8.05648 19.2201C14.2312 19.2201 21.2968 16.6764 22.1297 16.372L22.1335 20.0333H21.9515ZM21.7617 15.6339C21.4324 15.7507 20.6228 16.0509 19.5033 16.372C17.7701 15.4691 17.0451 13.2246 17.8839 11.359C18.4577 10.0827 19.6506 9.26354 20.9676 9.24139C21.1203 9.2391 21.273 9.24744 21.4247 9.26641L21.4285 9.27892C21.998 11.047 22.5093 13.5698 21.7617 15.6339Z" fill="#0266C1"/>
<path d="M14.8978 3.52858C14.2752 3.52858 13.7705 4.07187 13.7705 4.74204C13.7726 5.41126 14.2761 5.9532 14.8978 5.9555C15.5203 5.9555 16.025 5.4122 16.025 4.74204C16.025 4.07187 15.5204 3.52858 14.8978 3.52858ZM14.8978 5.1215C14.7031 5.1215 14.5453 4.95163 14.5453 4.74204C14.5453 4.53244 14.7031 4.36257 14.8978 4.36257C15.0925 4.36257 15.2503 4.53244 15.2503 4.74204C15.2503 4.95163 15.0925 5.1215 14.8978 5.1215Z" fill="#0266C1"/>
</g></symbol><symbol id="icon-boots" viewBox="0 0 26 25"><g fill="none">
<g clip-path="url(#clip0_2214_8)">
<path d="M24.9776 16.2662C25.7543 13.8339 25.1152 11.073 24.4361 9.15999C24.4316 9.08598 24.4088 9.01424 24.3695 8.95138C24.1387 8.32997 23.9256 7.81953 23.7436 7.45112C24.0786 7.31774 24.2996 6.99494 24.3029 6.63442V2.93704C24.3029 2.44674 23.9055 2.04932 23.4152 2.04932H12.5095C12.2644 2.04887 12.0653 2.24722 12.0648 2.4924C12.0648 2.50156 12.0651 2.51071 12.0656 2.51981C12.2165 5.18299 12.0212 6.98951 11.4575 8.26339C11.4463 8.27604 11.4359 8.28941 11.4265 8.30334C11.4248 8.32548 11.4248 8.34778 11.4265 8.36992C11.2113 8.83364 10.9203 9.25814 10.5654 9.62605L10.5254 9.65268C10.5254 9.65268 10.5254 9.65268 10.5254 9.68375C10.005 10.18 9.40488 10.5852 8.74996 10.8822C7.6089 11.3885 6.43788 11.8243 5.24345 12.1871L5.01708 12.2626C0.866963 13.6386 0.325451 16.1331 0.334328 17.3848C0.333219 17.4025 0.333219 17.4203 0.334328 17.438V20.6072C0.334994 20.7614 0.415611 20.9043 0.547382 20.9845C1.56449 21.6033 2.66239 22.0783 3.80977 22.396C4.04574 22.4623 4.29086 22.3248 4.35722 22.0888C4.3697 22.0444 4.3752 21.9982 4.37348 21.9521V21.85H5.02596V22.2939C5.02313 22.5138 5.18175 22.7026 5.3988 22.7377C5.78496 22.7999 6.17112 22.8487 6.5484 22.8798C6.67202 22.8902 6.79436 22.8483 6.88574 22.7644C6.97706 22.6797 7.02861 22.5605 7.02778 22.4359V21.8767H7.68025V22.5069C7.68025 22.7521 7.87899 22.9508 8.12412 22.9508C8.49696 22.9508 8.86981 22.9508 9.26928 22.8975C9.50048 22.879 9.67836 22.6856 9.67764 22.4537V21.8767H10.3301V22.2673C10.327 22.5124 10.5231 22.7137 10.7682 22.7168C10.7939 22.7172 10.8196 22.7153 10.845 22.7111C11.6598 22.5863 12.4629 22.3949 13.2463 22.1385L13.3173 22.1075C16.4243 20.332 18.3951 21.7923 18.475 21.8545C18.5524 21.9146 18.6477 21.9473 18.7457 21.9477H19.2961C19.5413 21.9477 19.74 21.7489 19.74 21.5038V20.7537H20.3747V21.4949C20.3747 21.7401 20.5735 21.9388 20.8186 21.9388H22.2478C22.4929 21.9388 22.6917 21.7401 22.6917 21.4949V20.7537H23.3486V21.4949C23.3486 21.7401 23.5473 21.9388 23.7925 21.9388H24.8888C25.1339 21.9388 25.3327 21.7401 25.3327 21.4949V16.7101C25.337 16.4958 25.1876 16.3091 24.9776 16.2662ZM14.4447 2.94592H23.393V6.6211H14.4447V2.94592ZM8.86537 11.7965L8.86981 11.8232C9.23366 12.1186 9.56944 12.447 9.87293 12.8041C9.79243 12.938 9.75093 13.0917 9.75309 13.248C9.75004 13.7162 10.1272 14.0982 10.5953 14.1012C11.0635 14.1043 11.4455 13.7272 11.4486 13.259C11.4515 12.8179 11.1156 12.4483 10.6763 12.4091C10.3956 12.0263 10.0757 11.6737 9.72202 11.3571C10.1187 11.1314 10.4918 10.8667 10.8361 10.567C11.2666 10.9709 11.6671 11.4056 12.0345 11.8676C11.8801 12.3096 12.1133 12.7931 12.5553 12.9475C12.9973 13.1019 13.4808 12.8688 13.6352 12.4268C13.7896 11.9848 13.5565 11.5013 13.1145 11.3468C13.0228 11.3148 12.9263 11.2987 12.8291 11.2994H12.7225C12.3332 10.8093 11.909 10.3479 11.4531 9.919C11.6646 9.65851 11.8518 9.37921 12.0124 9.08454C12.6995 9.44223 13.3636 9.84249 14.0009 10.283C13.9965 10.7561 14.3765 11.1431 14.8496 11.1475C15.3227 11.1519 15.7097 10.7719 15.7141 10.2988C15.7185 9.82568 15.3385 9.43863 14.8654 9.43425C14.7303 9.43297 14.5967 9.46371 14.4758 9.52396C13.8051 9.06989 13.1069 8.65782 12.3852 8.29002C12.869 7.00282 13.0776 5.29395 12.98 2.96367H13.5614V6.63885C13.5614 7.12916 13.9589 7.52658 14.4492 7.52658H22.7671C22.8825 7.76183 23.0778 8.17018 23.2909 8.70282H23.1089C20.4125 8.72229 18.2424 10.924 18.2618 13.6204C18.2729 15.1527 19.0026 16.5909 20.2327 17.5046C16.6418 18.45 11.24 19.573 6.69488 19.2801C7.53378 15.9289 6.53065 13.8649 5.87817 12.9595C6.89423 12.6262 7.89142 12.238 8.86537 11.7965ZM4.98601 13.2125C5.46538 13.7762 6.71707 15.6715 5.79828 19.1558C4.19893 19.0301 2.64558 18.5607 1.24425 17.7798C1.22832 17.6784 1.21795 17.5761 1.21318 17.4735V17.4425C1.17767 16.497 1.53276 14.4508 4.98601 13.2125ZM24.2363 21.0511V20.3098C24.2363 20.0647 24.0376 19.866 23.7925 19.866H22.2523C22.0071 19.866 21.8084 20.0647 21.8084 20.3098V21.0511H21.2624V20.3098C21.2624 20.0647 21.0637 19.866 20.8186 19.866H19.2873C19.0421 19.866 18.8434 20.0647 18.8434 20.3098V21.0333C18.2397 20.656 16.0337 19.5597 12.9045 21.3085C12.3478 21.4923 11.78 21.6405 11.2045 21.7524V21.4461C11.2045 21.201 11.0058 21.0022 10.7607 21.0022H9.22933C8.98421 21.0022 8.78547 21.201 8.78547 21.4461V22.0542H8.5591V21.4328C8.5591 21.1877 8.36036 20.9889 8.11524 20.9889H6.57504C6.32991 20.9889 6.13117 21.1877 6.13117 21.4328V21.961L5.9048 21.9299V21.4328C5.9048 21.1877 5.70606 20.9889 5.46094 20.9889H3.92074C3.69498 20.9873 3.50395 21.1554 3.47688 21.3795C2.68907 21.1201 1.93046 20.7795 1.21318 20.3631V18.7741C3.14842 19.7994 5.6518 20.1855 8.31498 20.1855C15.3901 20.1855 23.4862 17.478 24.4405 17.154L24.4449 21.0511H24.2363ZM24.0188 16.3683C23.6416 16.4926 22.7139 16.8122 21.4311 17.154C19.4452 16.1928 18.6145 13.8038 19.5756 11.8179C20.2331 10.4595 21.5999 9.58749 23.1089 9.56391C23.2839 9.56147 23.4588 9.57034 23.6327 9.59054L23.6371 9.60386C24.2896 11.4858 24.8755 14.1712 24.0188 16.3683Z" fill="#2D383F"/>
<path d="M16.1536 3.48303C15.4402 3.48303 14.8619 4.06132 14.8619 4.77466C14.8644 5.48701 15.4412 6.06386 16.1536 6.0663C16.8669 6.0663 17.4452 5.48801 17.4452 4.77466C17.4452 4.06132 16.867 3.48303 16.1536 3.48303ZM16.1536 5.17858C15.9305 5.17858 15.7496 4.99776 15.7496 4.77466C15.7496 4.55157 15.9305 4.37075 16.1536 4.37075C16.3767 4.37075 16.5575 4.55157 16.5575 4.77466C16.5575 4.99776 16.3767 5.17858 16.1536 5.17858Z" fill="#2D383F"/>
</g>

</g></symbol><symbol id="icon-card-level-3" viewBox="0 0 84 16"><g fill="none">
<path d="M7.63441 11.6911L12.3525 14.3L11.1042 9.37971L15.2688 6.0708L9.77893 5.63889L7.63441 1L5.48992 5.63889L0 6.0708L4.16458 9.37971L2.91634 14.3L7.63441 11.6911Z" fill="white"/>
<path d="M24.6344 11.6911L29.3525 14.3L28.1042 9.37971L32.2688 6.0708L26.7789 5.63889L24.6344 1L22.4899 5.63889L17 6.0708L21.1646 9.37971L19.9163 14.3L24.6344 11.6911Z" fill="white"/>
<path d="M41.6344 11.6911L46.3525 14.3L45.1042 9.37971L49.2688 6.0708L43.7789 5.63889L41.6344 1L39.4899 5.63889L34 6.0708L38.1646 9.37971L36.9163 14.3L41.6344 11.6911Z" fill="white"/>
<path fill-rule="evenodd" clip-rule="evenodd" d="M58.6344 10.5484L61.8153 12.3073L60.976 8.99895L63.6574 6.86844L60.1169 6.58989L58.6344 3.38311L57.152 6.58989L53.6114 6.86844L56.2929 8.99895L55.4536 12.3073L58.6344 10.5484ZM53.9163 14.3L55.1646 9.37971L51 6.0708L56.4899 5.63889L58.6344 1L60.7789 5.63889L66.2688 6.0708L62.1042 9.37971L63.3525 14.3L58.6344 11.6911L53.9163 14.3Z" fill="white"/>
<path fill-rule="evenodd" clip-rule="evenodd" d="M75.6344 10.5484L78.8153 12.3073L77.976 8.99895L80.6574 6.86844L77.1169 6.58989L75.6344 3.38311L74.152 6.58989L70.6114 6.86844L73.2929 8.99895L72.4536 12.3073L75.6344 10.5484ZM70.9163 14.3L72.1646 9.37971L68 6.0708L73.4899 5.63889L75.6344 1L77.7789 5.63889L83.2688 6.0708L79.1042 9.37971L80.3525 14.3L75.6344 11.6911L70.9163 14.3Z" fill="white"/>
</g></symbol><symbol id="icon-card-level-4" viewBox="0 0 84 16"><g fill="none">
<path d="M7.63441 11.6911L12.3525 14.3L11.1042 9.37971L15.2688 6.0708L9.77893 5.63889L7.63441 1L5.48992 5.63889L0 6.0708L4.16458 9.37971L2.91634 14.3L7.63441 11.6911Z" fill="white"/>
<path d="M24.6344 11.6911L29.3525 14.3L28.1042 9.37971L32.2688 6.0708L26.7789 5.63889L24.6344 1L22.4899 5.63889L17 6.0708L21.1646 9.37971L19.9163 14.3L24.6344 11.6911Z" fill="white"/>
<path d="M41.6344 11.6911L46.3525 14.3L45.1042 9.37971L49.2688 6.0708L43.7789 5.63889L41.6344 1L39.4899 5.63889L34 6.0708L38.1646 9.37971L36.9163 14.3L41.6344 11.6911Z" fill="white"/>
<path d="M58.6344 11.6911L63.3525 14.3L62.1042 9.37971L66.2688 6.0708L60.7789 5.63889L58.6344 1L56.4899 5.63889L51 6.0708L55.1646 9.37971L53.9163 14.3L58.6344 11.6911Z" fill="white"/>
<path fill-rule="evenodd" clip-rule="evenodd" d="M75.6344 10.5484L78.8153 12.3073L77.976 8.99895L80.6574 6.86844L77.1169 6.58989L75.6344 3.38311L74.152 6.58989L70.6114 6.86844L73.2929 8.99895L72.4536 12.3073L75.6344 10.5484ZM70.9163 14.3L72.1646 9.37971L68 6.0708L73.4899 5.63889L75.6344 1L77.7789 5.63889L83.2688 6.0708L79.1042 9.37971L80.3525 14.3L75.6344 11.6911L70.9163 14.3Z" fill="white"/>
</g></symbol><symbol id="icon-close" viewBox="0 0 20 20"><g fill="none"><path d="M.293 18.291a1 1 0 101.414 1.414L10 11.413l8.292 8.292a1 1 0 101.414-1.414l-8.292-8.292 8.292-8.292A1 1 0 1018.291.293L9.999 8.585 1.707.293A1 1 0 10.293 1.707L8.585 10 .293 18.291z"/></g></symbol><symbol id="icon-contacts-pin" viewBox="0 0 26 26"><g fill="none">
<path d="M21.8635 9.62847C21.8635 4.96342 17.8951 1.18164 12.9999 1.18164C8.10462 1.18164 4.13623 4.96342 4.13623 9.62847V10.1372C4.13623 12.0038 4.74823 13.8237 5.88667 15.3426L12.9824 24.8094C12.9909 24.8209 13.0088 24.8209 13.0174 24.8094L20.1131 15.3426C21.2515 13.8237 21.8635 12.0038 21.8635 10.1372V9.62847Z" stroke="#2D383F" stroke-linecap="round" stroke-linejoin="round"/>
<path d="M11.2674 6.25049C12.3622 5.74805 13.6375 5.74805 14.7323 6.25049C15.8271 6.75293 16.6223 7.70313 16.8927 8.8321C17.1631 9.96107 16.8793 11.1459 16.1217 12.0513C15.364 12.9567 14.215 13.484 12.9999 13.484C11.7847 13.484 10.6357 12.9567 9.87807 12.0513C9.12044 11.1459 8.83665 9.96107 9.10705 8.8321C9.37744 7.70313 10.1726 6.75293 11.2674 6.25049Z" stroke="#2D383F" stroke-linecap="round" stroke-linejoin="round"/>
</g></symbol><symbol id="icon-crown" viewBox="0 0 24 24"><g fill="none">
<path d="M19.2945 21.818H4.70534M22.909 7.75649L19.7177 18.3324H4.28216L1.09082 7.75649L7.3872 11.579L11.9999 2.18164L16.6126 11.579L22.909 7.75649Z" stroke="#0266C1"/>
</g></symbol><symbol id="icon-eco" viewBox="0 0 26 25"><g fill="none">
<path d="M25.2588 18.0832L20.3519 12.4696H22.7226C22.9994 12.4689 23.2233 12.244 23.2227 11.9672C23.2224 11.857 23.1858 11.7499 23.1186 11.6626L19.179 6.48504H21.1839C21.4607 6.48466 21.6848 6.25999 21.6845 5.98319C21.6844 5.86165 21.64 5.7443 21.5598 5.65302L16.7381 0.169703C16.555 -0.0379264 16.2383 -0.0577872 16.0306 0.125345C16.0149 0.139191 16.0001 0.15404 15.9863 0.169703L11.1596 5.648C10.9741 5.8535 10.9903 6.17046 11.1958 6.35591C11.2889 6.43993 11.41 6.48598 11.5355 6.48504H13.5654L12.3525 8.06888L9.10457 4.37491C8.9215 4.16728 8.60473 4.14742 8.3971 4.33055C8.38138 4.3444 8.36659 4.35925 8.35275 4.37491L4.22773 9.06129C4.04504 9.26923 4.06553 9.58594 4.27347 9.76863C4.36475 9.84883 4.4821 9.89312 4.60364 9.89331H6.1925L2.89449 14.2088C2.73116 14.4323 2.77984 14.7458 3.00332 14.9092C3.08677 14.9703 3.18708 15.004 3.29046 15.0057H5.14496L1.07007 19.6921C0.890129 19.9024 0.914751 20.2188 1.12514 20.3988C1.2146 20.4754 1.32825 20.518 1.44598 20.5191H6.98944V24.0276C6.98944 24.5646 7.42481 25 7.9618 25H9.49051C10.0275 25.0027 10.4651 24.5697 10.4679 24.0326C10.4679 24.0309 10.4679 24.0293 10.4679 24.0276V20.5191H14.628V24.0276C14.628 24.5646 15.0634 25 15.6003 25H17.1291C17.666 25 18.1014 24.5646 18.1014 24.0276V18.9152H24.8829C25.1597 18.9148 25.3838 18.6902 25.3835 18.4134C25.3833 18.2918 25.339 18.1745 25.2588 18.0832ZM9.46545 23.9976L7.99187 24.0276L7.9618 20.5191H9.46545V23.9976ZM14.628 19.5167H2.54866L6.64861 14.8403C6.83418 14.6349 6.81808 14.318 6.61271 14.1324C6.51698 14.046 6.39161 13.9997 6.26267 14.0033H4.30793L7.60593 9.68781C7.77478 9.46847 7.73387 9.15376 7.51452 8.98492C7.42719 8.91769 7.32018 8.8811 7.20997 8.88085H5.70632L8.71362 5.45754L11.7209 8.87083L9.60579 11.6676C9.43694 11.887 9.47785 12.2017 9.6972 12.3705C9.78454 12.4377 9.89154 12.4743 10.0017 12.4746H12.3775L7.4706 18.0882C7.28791 18.2962 7.3084 18.6129 7.51634 18.7955C7.60762 18.8757 7.72497 18.92 7.84652 18.9202H14.628V19.5167ZM17.099 23.9875L15.6304 24.0276L15.6003 18.9152H17.104L17.099 23.9875ZM17.1291 17.9128H8.94919L13.8561 12.2992C14.0388 12.0912 14.0183 11.7745 13.8104 11.5918C13.7191 11.5116 13.6017 11.4673 13.4802 11.4671H11.0192L14.9788 6.28455C15.1449 6.06314 15.1001 5.74894 14.8787 5.58285C14.7933 5.51881 14.6896 5.48367 14.5829 5.4826H12.6632L16.3822 1.26236L20.0812 5.4826H18.1465C17.8697 5.48329 17.6459 5.70821 17.6465 5.98501C17.6467 6.09521 17.6833 6.20222 17.7506 6.28956L21.6851 11.4671H19.2442C18.9674 11.4675 18.7433 11.6922 18.7436 11.969C18.7437 12.0905 18.7881 12.2079 18.8683 12.2992L23.7752 17.9128H17.1291Z" fill="#2D383F"/>
</g></symbol><symbol id="icon-hero-level" viewBox="0 0 12 12"><g fill="none">
<path d="M10.9091 11.4546H8.94549V0.545471H10.9091V11.4546Z" stroke="white" stroke-miterlimit="16" stroke-linecap="round"/>
<path d="M6.98185 11.4546V3.52068H5.01821L5.01822 11.4546H6.98185Z" stroke="white" stroke-miterlimit="16" stroke-linecap="round"/>
<path d="M3.05458 11.4546V6.49588H1.09094V11.4546H3.05458Z" stroke="white" stroke-miterlimit="16" stroke-linecap="round"/>
</g></symbol><symbol id="icon-leaf" viewBox="0 0 24 24"><g fill="none">
<path d="M11.662 17.7206C10.9227 14.5975 8.74849 11.9689 5.75492 10.579C4.28063 9.89447 2.68662 9.54707 1.09082 9.53679C1.18415 11.7498 2.00095 13.9041 3.46387 15.6727C5.5203 18.1589 8.63129 19.6146 11.9269 19.6358C11.8999 18.9962 11.8123 18.3552 11.662 17.7206ZM11.662 17.7206C11.0551 15.1567 9.4811 12.9262 7.28073 11.4406C7.31788 11.2191 7.36249 10.998 7.41465 10.7777C8.04019 8.13531 9.69285 5.84696 11.9999 4.36328C14.3069 5.84696 15.9595 8.13532 16.5851 10.7777C16.6372 10.998 16.6819 11.2191 16.719 11.4406C14.5186 12.9262 12.9447 15.1567 12.3378 17.7206M11.662 17.7206C11.8122 18.355 11.8998 18.9958 11.9268 19.6352C11.9724 19.6357 12.0181 19.636 12.0638 19.636C12.9876 19.636 13.8975 19.5232 14.7742 19.3066C14.7792 19.3 14.7841 19.2934 14.7891 19.2868C13.9111 19.5105 12.9994 19.6298 12.0729 19.6358M12.3378 17.7206C13.0771 14.5975 15.2513 11.9689 18.2449 10.579C19.7192 9.89447 21.3132 9.54707 22.909 9.53679C22.8157 11.7498 21.9989 13.9041 20.536 15.6727C18.4795 18.1589 15.3685 19.6146 12.0729 19.6358M12.3378 17.7206C12.1876 18.3552 12.0999 18.9962 12.0729 19.6358" stroke="#0266C1" stroke-linecap="round" stroke-linejoin="round"/>
</g></symbol><symbol id="icon-mail" viewBox="0 0 26 26"><g fill="none">
<path d="M24.818 6.56592V19.4346C24.818 20.4499 24.0621 21.273 23.1297 21.273H2.86995C1.93752 21.273 1.18164 20.4499 1.18164 19.4346V6.56592M24.818 6.56592C24.818 5.55061 24.0621 4.72754 23.1297 4.72754H2.86995C1.93752 4.72754 1.18164 5.55061 1.18164 6.56592M24.818 6.56592L15.1973 15.5452C13.9328 16.7254 12.0669 16.7254 10.8024 15.5452L1.18164 6.56592" stroke="#2D383F" stroke-linecap="round" stroke-linejoin="round"/>
</g></symbol><symbol id="icon-map-pin" viewBox="0 0 48 48"><g fill="none">
<path fill-rule="evenodd" clip-rule="evenodd" d="M23.9999 2.18164C33.0373 2.18164 40.3635 9.16338 40.3635 17.7758V18.7151C40.3635 22.161 39.2337 25.5208 37.1319 28.3249L24.0322 45.8021C24.0164 45.8233 23.9834 45.8233 23.9675 45.8021L10.8678 28.3249C8.76607 25.5209 7.63623 22.161 7.63623 18.7151V17.7758C7.63623 9.16338 14.9625 2.18164 23.9999 2.18164ZM21.0922 12.5764C19.2548 13.4137 17.9203 14.9972 17.4665 16.8786C17.0127 18.7599 17.4889 20.7345 18.7605 22.2432C20.032 23.752 21.9605 24.6307 23.9999 24.6307C26.0393 24.6307 27.9677 23.752 29.2393 22.2432C30.5108 20.7345 30.9871 18.7599 30.5333 16.8786C30.0795 14.9972 28.7449 13.4137 26.9075 12.5764C25.0701 11.7391 22.9297 11.7391 21.0922 12.5764Z" fill="#0266C1"/>
</g></symbol><symbol id="icon-map" viewBox="0 0 25 25"><g fill="none">
<path d="M24.1704 22.2803V6.70123C24.1823 6.44571 23.9848 6.22897 23.7293 6.2171C23.6748 6.21456 23.6204 6.22168 23.5684 6.23812V6.26127L21.4844 6.91426C21.7026 6.33016 21.8321 5.71665 21.8688 5.09423C21.8688 2.28077 19.588 0 16.7745 0C13.9611 0 11.6803 2.28077 11.6803 5.09423C11.7128 5.68754 11.833 6.27279 12.0369 6.8309L8.59135 5.59902C8.55135 5.5941 8.51094 5.5941 8.47094 5.59902H8.43389C8.37837 5.60001 8.32344 5.61101 8.2718 5.63144L1.12598 8.41011C0.961171 8.47281 0.846262 8.62361 0.82959 8.79913V24.3967C0.830342 24.6525 1.03828 24.8592 1.29409 24.8585C1.35065 24.8583 1.40669 24.8478 1.45942 24.8274L8.44315 22.1229L16.4087 24.9756C16.5048 25.0081 16.6089 25.0081 16.7051 24.9756L23.8463 22.7434C24.0469 22.6806 24.18 22.4904 24.1704 22.2803ZM16.7745 0.926224C19.0765 0.926224 20.9425 2.79228 20.9425 5.09423C20.9425 6.905 18.2241 11.9066 16.7745 14.3565C15.325 11.8881 12.6065 6.88184 12.6065 5.09423C12.6065 2.79228 14.4726 0.926224 16.7745 0.926224ZM23.2581 21.9608L17.0246 23.9105V20.3769C17.0246 20.1212 16.8173 19.9138 16.5615 19.9138C16.3058 19.9138 16.0984 20.1212 16.0984 20.3769V23.8781L8.90163 21.3032V18.3392C8.90163 18.0835 8.69427 17.8761 8.43852 17.8761C8.18277 17.8761 7.97541 18.0835 7.97541 18.3392V21.3032L1.75581 23.7252V16.5655L4.04359 15.6393C4.2884 15.5652 4.42675 15.3067 4.35266 15.0618C4.27856 14.817 4.02003 14.6787 3.77521 14.7528C3.74963 14.7605 3.72473 14.7705 3.70083 14.7825L1.75576 15.5652V9.11868L7.97535 6.71049V8.09983C7.97535 8.35558 8.18271 8.56294 8.43846 8.56294C8.69421 8.56294 8.90157 8.35558 8.90157 8.09983V6.69197L12.4536 7.96553C13.5928 10.5687 14.9032 13.0936 16.3762 15.5235C16.5088 15.7422 16.7936 15.8119 17.0123 15.6793C17.076 15.6407 17.1295 15.5872 17.1681 15.5235C18.6339 13.1079 19.9396 10.5985 21.0768 8.01184L23.2442 7.33106L23.258 14.9215L20.9101 15.4911C20.6543 15.5218 20.4718 15.754 20.5025 16.0098C20.5332 16.2655 20.7655 16.448 21.0212 16.4173C21.0581 16.4218 21.0954 16.4218 21.1324 16.4173L23.258 15.8986L23.2581 21.9608Z" fill="#2D383F"/>
<path d="M16.756 2.40353C15.2699 2.40353 14.0653 3.6082 14.0653 5.09421C14.0653 6.58022 15.2699 7.78489 16.756 7.78489C18.2409 7.78235 19.4441 6.57918 19.4466 5.09421C19.4466 3.6082 18.242 2.40353 16.756 2.40353ZM16.756 6.85867C15.7898 6.84605 15.0125 6.0605 15.01 5.09421H14.9915C14.9915 4.11971 15.7815 3.32976 16.756 3.32976C17.7305 3.32976 18.5204 4.11971 18.5204 5.09421C18.5204 6.06872 17.7305 6.85867 16.756 6.85867Z" fill="#2D383F"/>
<path d="M10.6985 13.9674V13.9813L8.45704 13.0134C8.34294 12.9659 8.21454 12.9659 8.10044 13.0134L6.20631 13.7776C5.96845 13.8735 5.85336 14.1441 5.94929 14.3819C6.04521 14.6198 6.31578 14.7349 6.55365 14.639L8.26716 13.9489L10.328 14.8196C10.3865 14.8445 10.4496 14.8571 10.5133 14.8566C10.769 14.8587 10.978 14.6531 10.9801 14.3973C10.9816 14.2103 10.8705 14.0407 10.6985 13.9674Z" fill="#2D383F"/>
<path d="M18.2702 16.616C18.2012 16.3929 17.9769 16.2561 17.747 16.2969L17.7516 16.2598L16.6031 16.5377L14.658 15.6948C14.4227 15.5925 14.149 15.7003 14.0467 15.9356C13.9444 16.171 14.0522 16.4447 14.2875 16.5469L16.3715 17.4732C16.4301 17.4981 16.4932 17.5107 16.5568 17.5102H16.6679L17.9646 17.1953C18.209 17.1197 18.3458 16.8604 18.2702 16.616Z" fill="#2D383F"/>
</g></symbol><symbol id="icon-menu" viewBox="0 0 26 26"><g fill="none">
<path d="M0 3.54541H26V5.71534H0V3.54541Z" fill="white"/>
<path d="M0 20.2846H26V22.4545H0V20.2846Z" fill="white"/>
<path d="M0 11.915H16.64V14.0849H0V11.915Z" fill="white"/>
</g></symbol><symbol id="icon-moon" viewBox="0 0 20 20"><g fill="none">
<path d="M17.6218 11.1056C17.4582 11.0646 17.2946 11.1056 17.1515 11.2082C16.6199 11.6596 16.0065 12.029 15.3317 12.2752C14.6978 12.5214 14.0026 12.6445 13.2665 12.6445C11.6103 12.6445 10.0972 11.9674 9.01345 10.8799C7.92974 9.79241 7.25498 8.27401 7.25498 6.61197C7.25498 5.91433 7.37766 5.2372 7.58213 4.62163C7.80705 3.96503 8.13421 3.36998 8.56361 2.857C8.74763 2.63129 8.70674 2.30299 8.48182 2.11832C8.33869 2.01573 8.17511 1.97469 8.01153 2.01573C6.2735 2.48766 4.7604 3.53413 3.67668 4.92942C2.63387 6.30419 2 8.00726 2 9.87449C2 12.1111 2.89968 14.1424 4.3719 15.6198C5.84411 17.0972 7.8684 18 10.0972 18C11.9783 18 13.7163 17.3434 15.1068 16.2559C16.5176 15.1479 17.54 13.5679 17.9694 11.7622C18.0716 11.4544 17.9081 11.1672 17.6218 11.1056ZM14.4933 15.3941C13.3074 16.338 11.7943 16.9125 10.1381 16.9125C8.19556 16.9125 6.43708 16.1123 5.16934 14.8401C3.90161 13.5679 3.10416 11.8033 3.10416 9.85397C3.10416 8.23297 3.63579 6.75561 4.55592 5.56551C5.18979 4.74475 5.98724 4.06762 6.90737 3.59569C6.80513 3.82139 6.7029 4.0471 6.62111 4.29333C6.35529 5.03201 6.23261 5.81173 6.23261 6.63249C6.23261 8.58179 7.03006 10.3669 8.29779 11.6391C9.56553 12.9113 11.3445 13.7115 13.287 13.7115C14.1457 13.7115 14.9636 13.5679 15.7202 13.2806C15.986 13.178 16.2518 13.0754 16.4972 12.9523C16.0065 13.8962 15.3317 14.7375 14.4933 15.3941Z" fill="white"/>
</g></symbol><symbol id="icon-more" viewBox="0 0 9 14"><g fill="none">
<path d="M1.5 13L7.5 7L1.5 1" stroke="#2D383F" stroke-width="2"/>
</g></symbol><symbol id="icon-mountain" viewBox="0 0 25 25"><g fill="none">
<g clip-path="url(#clip0_1941_1042)">
<path d="M23.4153 24.1883L15.5583 5.90781C15.4551 5.66541 15.1749 5.55265 14.9325 5.65587C14.8192 5.70417 14.7289 5.79445 14.6806 5.90781L9.93871 16.9181L7.00963 10.1583C6.90634 9.91592 6.62614 9.80316 6.3838 9.90638C6.27044 9.95468 6.18016 10.045 6.13186 10.1583L3.37928 16.5174L0.0399368 24.1836C-0.0654315 24.425 0.0448861 24.7062 0.286333 24.8116C0.347037 24.8381 0.412572 24.8517 0.478822 24.8514H22.9765C23.2399 24.8512 23.4533 24.6375 23.4531 24.374C23.4531 24.3102 23.4402 24.2471 23.4153 24.1883ZM15.1147 7.29603L18.2107 14.4947H17.1231L15.1576 12.3241C14.9804 12.1291 14.6787 12.1148 14.4837 12.292C14.4531 12.3198 14.4263 12.3514 14.4039 12.3861L13.6692 13.5215H12.4384L15.1147 7.29603ZM6.57074 11.5322L9.018 17.19H7.68226C7.52007 17.1903 7.36914 17.273 7.28154 17.4095L6.80449 18.168L5.57371 16.4315C5.48474 16.3032 5.33864 16.2266 5.18253 16.2264H4.54805L6.57074 11.5322ZM1.22779 23.8973L4.13302 17.1805H4.93446L6.42285 19.3034C6.51182 19.4316 6.65792 19.5082 6.81403 19.5085C6.97283 19.505 7.11947 19.4227 7.20522 19.289L7.93987 18.1537H9.42826L11.9137 23.8783L1.22779 23.8973ZM12.9584 23.8973L10.4587 18.125L12.0282 14.4756H13.9364C14.0986 14.4753 14.2495 14.3927 14.3371 14.2562L14.8666 13.4404L16.5554 15.3057C16.6455 15.4056 16.7738 15.4628 16.9084 15.4631H18.6162L22.2466 23.9116L12.9584 23.8973Z" fill="#2D383F"/>
<path d="M7.61068 2.08188C7.16065 0.922592 5.85598 0.347688 4.69675 0.797784C3.83359 1.13285 3.26357 1.9622 3.26 2.88809C3.25529 2.97074 3.25529 3.05351 3.26 3.13616C2.13213 3.65996 1.6425 4.99892 2.1663 6.12678C2.52904 6.90777 3.30543 7.4135 4.16639 7.4296L4.19024 7.44869H7.52959C9.0116 7.47111 10.2311 6.28785 10.2535 4.80583C10.2759 3.32382 9.0927 2.1043 7.61068 2.08188ZM7.55821 6.5089H4.21886C3.50484 6.58266 2.86625 6.06369 2.79249 5.34967C2.71872 4.63564 3.23769 3.99706 3.95172 3.92329C4.20998 3.87123 4.37719 3.61971 4.32513 3.36139C4.32113 3.34165 4.31594 3.32215 4.3095 3.30313C4.26293 3.16967 4.23878 3.02942 4.23795 2.88809C4.23389 2.17145 4.81148 1.58724 5.52813 1.58313C6.16207 1.57949 6.70578 2.03447 6.81401 2.65911C6.85784 2.90992 7.09094 3.08207 7.34354 3.05029C7.41504 3.04558 7.48671 3.04558 7.55821 3.05029C8.51326 3.05029 9.28751 3.82454 9.28751 4.77959C9.28751 5.73465 8.51326 6.5089 7.55821 6.5089Z" fill="#2D383F"/>
<path d="M23.6967 2.63997C23.7014 2.55733 23.7014 2.47456 23.6967 2.39191C23.6919 1.14836 22.6799 0.144172 21.4363 0.148943C20.5172 0.152521 19.6938 0.714604 19.354 1.56727C17.8795 1.59816 16.7047 2.81392 16.727 4.29057C16.7494 5.77258 17.9689 6.95584 19.451 6.93342H22.7903C24.0337 6.91016 25.0228 5.88343 24.9995 4.64006C24.9834 3.77911 24.4777 3.00271 23.6967 2.63997ZM24.056 4.94758C23.9297 5.54008 23.4103 5.96632 22.8046 5.97455H19.4653C18.5102 5.97455 17.736 5.2003 17.736 4.24525C17.736 3.29019 18.5102 2.51594 19.4653 2.51594C19.5368 2.51123 19.6084 2.51123 19.6799 2.51594C19.9213 2.54099 20.143 2.38088 20.1952 2.14384C20.3147 1.43727 20.9844 0.961417 21.6911 1.08098C22.3976 1.20054 22.8735 1.87026 22.7539 2.57688C22.7418 2.64862 22.7236 2.71922 22.6997 2.78792C22.6154 3.03754 22.7495 3.3082 22.9992 3.39246C23.0183 3.3989 23.0377 3.40415 23.0574 3.40808C23.7584 3.5574 24.2054 4.24668 24.056 4.94758Z" fill="#2D383F"/>
</g>

</g></symbol><symbol id="icon-path" viewBox="0 0 24 24"><g fill="none">
<g clip-path="url(#clip0_2836_160)">
<path d="M19.7921 9.56438H13.948C12.119 9.56438 10.6363 11.058 10.6363 12.9005C10.6363 14.743 12.119 16.2367 13.948 16.2367H16.4804C18.3094 16.2367 19.7921 17.7303 19.7921 19.5728C19.7921 21.4154 18.3094 22.909 16.4804 22.909H4.2077M7.32459 17.3783C7.32459 15.6442 5.92911 14.2384 4.2077 14.2384C2.4863 14.2384 1.09082 15.6442 1.09082 17.3783V17.4963C1.09082 18.1849 1.30737 18.8557 1.70938 19.4126L4.20155 22.8646C4.20459 22.8688 4.21082 22.8688 4.21386 22.8646L6.70603 19.4126C7.10804 18.8557 7.32459 18.1849 7.32459 17.4963V17.3783ZM4.81024 16.0858L4.82895 16.0947C5.20619 16.2744 5.48122 16.618 5.57568 17.0275C5.67119 17.4415 5.56854 17.8804 5.30257 18.2104C5.03952 18.5367 4.64156 18.7298 4.22426 18.7298H4.19115C3.77384 18.7298 3.37588 18.5367 3.11284 18.2104C2.84686 17.8804 2.74421 17.4415 2.83972 17.0275C2.93419 16.618 3.20922 16.2744 3.58646 16.0947L3.60516 16.0858C3.9866 15.904 4.42881 15.904 4.81024 16.0858ZM22.909 4.2528C22.909 2.51868 21.5135 1.09082 19.7921 1.09082C18.0707 1.09082 16.6752 2.51868 16.6752 4.2528C16.6752 4.93451 16.8934 5.60544 17.2974 6.15233L19.786 9.52099C19.789 9.52515 19.7952 9.52515 19.7983 9.52099L22.2868 6.15233C22.6908 5.60544 22.909 4.93451 22.909 4.2528ZM20.3862 2.8923L20.4285 2.912C20.796 3.08312 21.0652 3.41466 21.1589 3.81144C21.255 4.2184 21.1553 4.64717 20.89 4.96891L20.8767 4.98505C20.618 5.29873 20.2341 5.48019 19.8293 5.48019H19.755C19.3501 5.48019 18.9663 5.29873 18.7076 4.98505L18.6943 4.96891C18.4289 4.64717 18.3293 4.2184 18.4253 3.81144C18.519 3.41466 18.7882 3.08312 19.1557 2.912L19.198 2.8923C19.5749 2.7168 20.0093 2.7168 20.3862 2.8923Z" stroke="#0266C1" stroke-linecap="round"/>
</g>

</g></symbol><symbol id="icon-phone" viewBox="0 0 26 26"><g fill="none">
<g clip-path="url(#clip0_131_4848)">
<path d="M22.8368 23.6885C22.4584 24.4342 21.6789 24.8974 20.8502 24.8067C20.494 24.7677 20.1382 24.72 19.783 24.6636C15.1541 23.9275 10.8761 21.7392 7.56222 18.4122C4.24829 15.0852 2.06855 10.7904 1.3354 6.14328C1.27919 5.78698 1.2317 5.43001 1.19289 5.07268C1.10253 4.24071 1.56391 3.45809 2.30667 3.07814L5.55725 1.41536C6.81529 0.771838 8.33752 1.5225 8.77994 2.8686C9.04827 3.68504 9.36516 4.48843 9.73023 5.2744C9.91316 5.66825 10.1072 6.0556 10.312 6.43607C10.7968 7.33683 10.4698 8.49216 9.54135 8.91583C8.19298 9.53113 7.87184 11.3091 8.91916 12.3605L13.5902 17.0499C14.6375 18.1014 16.4085 17.779 17.0214 16.4253C17.4666 15.4418 18.6736 15.0858 19.632 15.577C19.8643 15.6961 20.0991 15.8112 20.3363 15.9222C21.2349 16.3429 22.1563 16.6998 23.094 16.9925C24.4592 17.4186 25.2342 18.965 24.5851 20.2438L22.8368 23.6885Z" stroke="#2D383F" stroke-linecap="round" stroke-linejoin="round"/>
</g>

</g></symbol><symbol id="icon-pin-contacts" viewBox="0 0 48 48"><g fill="none">
<path fill-rule="evenodd" clip-rule="evenodd" d="M23.9999 2.18164C33.0373 2.18164 40.3635 9.16338 40.3635 17.7758V18.7151C40.3635 22.161 39.2337 25.5208 37.1319 28.3249L24.0322 45.8021C24.0164 45.8233 23.9834 45.8233 23.9675 45.8021L10.8678 28.3249C8.76607 25.5209 7.63623 22.161 7.63623 18.7151V17.7758C7.63623 9.16338 14.9625 2.18164 23.9999 2.18164ZM21.0922 12.5764C19.2548 13.4137 17.9203 14.9972 17.4665 16.8786C17.0127 18.7599 17.4889 20.7345 18.7605 22.2432C20.032 23.752 21.9605 24.6307 23.9999 24.6307C26.0393 24.6307 27.9677 23.752 29.2393 22.2432C30.5108 20.7345 30.9871 18.7599 30.5333 16.8786C30.0795 14.9972 28.7449 13.4137 26.9075 12.5764C25.0701 11.7391 22.9297 11.7391 21.0922 12.5764Z" fill="#0266C1"/>
</g></symbol><symbol id="icon-pin" viewBox="0 0 16 16"><g fill="none">
<path d="M8.49981 2C6.01874 2 4 3.98191 4 6.41796C4 7.05338 4.13247 7.66006 4.39354 8.2213C5.51862 10.6383 7.67571 13.1902 8.31017 13.9146C8.35771 13.9688 8.42701 14 8.49994 14C8.57287 14 8.64217 13.9688 8.6897 13.9146C9.32392 13.1903 11.481 10.6386 12.6065 8.2213C12.8677 7.66006 13 7.05338 13 6.41796C12.9998 3.98191 10.981 2 8.49981 2ZM8.49981 8.71267C7.21099 8.71267 6.16234 7.68315 6.16234 6.41784C6.16234 5.15241 7.21099 4.12289 8.49981 4.12289C9.78864 4.12289 10.8373 5.15241 10.8373 6.41784C10.8374 7.68315 9.78876 8.71267 8.49981 8.71267Z" fill="white"/>
</g></symbol><symbol id="icon-shield" viewBox="0 0 24 24"><g fill="none">
<path d="M9.54529 11.9039L11.9999 14.3521L16.2953 10.0677M11.9998 1.09082C9.46749 2.38571 6.64626 3.07423 3.76239 3.07423C3.37305 3.07423 2.98484 3.06168 2.59834 3.03679C2.09942 5.31296 2.04422 7.68139 2.45598 10.0106C3.1931 14.1803 5.37955 17.9575 8.63134 20.6791C9.67395 21.5517 10.8047 22.2979 11.9998 22.909C13.1949 22.2979 14.3257 21.5517 15.3683 20.6791C18.6201 17.9575 20.8065 14.1802 21.5437 10.0106C21.9554 7.68139 21.9002 5.31296 21.4013 3.03678C21.0148 3.06168 20.6266 3.07423 20.2372 3.07423C17.3533 3.07423 14.5321 2.38571 11.9998 1.09082Z" stroke="#0266C1"/>
</g></symbol><symbol id="icon-sun" viewBox="0 0 20 20"><g fill="none">
<path d="M13.545 6.45505C12.6455 5.55558 11.3757 4.97357 10 4.97357C8.62433 4.97357 7.35449 5.52912 6.45502 6.45505C5.55555 7.35451 4.97354 8.62435 4.97354 10C4.97354 11.3757 5.55555 12.6455 6.45502 13.545C7.35449 14.4444 8.62433 15.0265 10 15.0265C11.3757 15.0265 12.6455 14.4709 13.545 13.545C14.4444 12.6455 15.0265 11.3757 15.0265 10C15.0265 8.62435 14.4709 7.35451 13.545 6.45505ZM12.5926 12.5926C11.9312 13.254 11.0053 13.6508 10 13.6508C8.9947 13.6508 8.06878 13.254 7.4074 12.5926C6.74603 11.9312 6.3492 11.0053 6.3492 10C6.3492 8.99472 6.74603 8.0688 7.4074 7.40742C8.06878 6.74605 8.9947 6.34923 10 6.34923C11.0053 6.34923 11.9312 6.74605 12.5926 7.40742C13.254 8.0688 13.6508 8.99472 13.6508 10C13.6508 11.0053 13.254 11.9312 12.5926 12.5926Z" fill="white"/>
<path d="M19.3122 9.3122H17.2751C16.9048 9.3122 16.5873 9.62966 16.5873 10C16.5873 10.3704 16.9048 10.6879 17.2751 10.6879H19.3122C19.6825 10.6879 20 10.3704 20 10C20 9.62966 19.6825 9.3122 19.3122 9.3122Z" fill="white"/>
<path d="M9.99999 16.5873C9.62962 16.5873 9.31216 16.9048 9.31216 17.2751V19.3122C9.31216 19.6825 9.62962 20 9.99999 20C10.3704 20 10.6878 19.6825 10.6878 19.3122V17.2751C10.6878 16.9048 10.3704 16.5873 9.99999 16.5873Z" fill="white"/>
<path d="M17.0635 16.1111L15.6085 14.656C15.3704 14.3915 14.9207 14.3915 14.6561 14.656C14.3916 14.9206 14.3916 15.3439 14.6561 15.6084L16.1111 17.0634C16.3757 17.328 16.799 17.328 17.0635 17.0634C17.3281 16.7989 17.3281 16.3756 17.0635 16.1111Z" fill="white"/>
<path d="M9.99999 0C9.62962 0 9.31216 0.317459 9.31216 0.687829V2.72486C9.31216 3.09523 9.62962 3.41269 9.99999 3.41269C10.3704 3.41269 10.6878 3.09523 10.6878 2.72486V0.687829C10.6878 0.317459 10.3704 0 9.99999 0Z" fill="white"/>
<path d="M17.0899 2.93653C16.8254 2.67198 16.4021 2.67198 16.1376 2.93653L14.6825 4.39155C14.418 4.6561 14.418 5.07938 14.6825 5.34393C14.9206 5.60848 15.3704 5.60848 15.6349 5.34393L17.0899 3.88891C17.3545 3.62436 17.3545 3.20108 17.0899 2.93653Z" fill="white"/>
<path d="M2.72487 9.3122H0.687831C0.31746 9.3122 0 9.62966 0 10C0 10.3704 0.291005 10.6879 0.687831 10.6879H2.72487C3.09524 10.6879 3.4127 10.3704 3.4127 10C3.4127 9.62966 3.09524 9.3122 2.72487 9.3122Z" fill="white"/>
<path d="M5.31746 14.656C5.07937 14.3915 4.62963 14.3915 4.36508 14.656L2.91005 16.1111C2.6455 16.3756 2.6455 16.7989 2.91005 17.0634C3.1746 17.328 3.59788 17.328 3.86243 17.0634L5.31746 15.6084C5.58201 15.3439 5.58201 14.9206 5.31746 14.656Z" fill="white"/>
<path d="M5.31746 4.39155L3.86243 2.93653C3.59788 2.67198 3.1746 2.67198 2.91005 2.93653C2.6455 3.20108 2.6455 3.62436 2.91005 3.88891L4.36508 5.34393C4.62963 5.60848 5.05291 5.60848 5.31746 5.34393C5.58201 5.07938 5.58201 4.6561 5.31746 4.39155Z" fill="white"/>
</g></symbol><symbol id="icon-vk" viewBox="0 0 14 8"><g fill="none">
<path d="M13.9258 7.22585C13.9088 7.18926 13.893 7.15891 13.8783 7.13459C13.6354 6.69645 13.1712 6.15865 12.4861 5.52106L12.4716 5.50646L12.4643 5.4993L12.457 5.49196H12.4497C12.1387 5.19506 11.9418 4.99543 11.8593 4.89323C11.7084 4.69854 11.6746 4.50147 11.7571 4.30179C11.8154 4.15092 12.0342 3.83232 12.4131 3.34554C12.6125 3.08756 12.7703 2.8808 12.8869 2.72502C13.7276 1.60555 14.0921 0.8902 13.9803 0.578677L13.9369 0.505878C13.9077 0.462051 13.8324 0.421956 13.711 0.385391C13.5894 0.348902 13.434 0.342868 13.2444 0.367185L11.1452 0.381709C11.1111 0.369639 11.0626 0.370764 10.9993 0.385391C10.9361 0.400017 10.9045 0.407356 10.9045 0.407356L10.868 0.425639L10.839 0.447603C10.8147 0.462127 10.788 0.487672 10.7588 0.524187C10.7297 0.560573 10.7055 0.603275 10.6861 0.651935C10.4575 1.24084 10.1977 1.78838 9.90602 2.29452C9.7262 2.59633 9.56107 2.85789 9.41026 3.07935C9.25966 3.30074 9.1333 3.46385 9.03133 3.56841C8.92921 3.67307 8.83705 3.75691 8.75428 3.82025C8.67163 3.88361 8.60855 3.91038 8.56486 3.90059C8.52108 3.8908 8.47985 3.88108 8.44081 3.87136C8.37282 3.82754 8.31813 3.76793 8.2769 3.6925C8.23549 3.61707 8.20761 3.52212 8.19303 3.40775C8.17853 3.2933 8.16995 3.19485 8.1675 3.11208C8.16523 3.02941 8.16628 2.91248 8.17121 2.76161C8.17626 2.61067 8.17853 2.50854 8.17853 2.455C8.17853 2.27002 8.18213 2.06927 8.18936 1.85269C8.19671 1.63611 8.20266 1.46451 8.20764 1.33809C8.21259 1.21154 8.21489 1.07766 8.21489 0.936508C8.21489 0.79536 8.20631 0.684665 8.18936 0.604324C8.17261 0.524084 8.1469 0.446197 8.11302 0.370688C8.07894 0.295256 8.02905 0.236904 7.96359 0.19548C7.898 0.154108 7.81646 0.121275 7.71941 0.0968811C7.46183 0.0385041 7.13384 0.00692482 6.73528 0.00201533C5.83147 -0.00770139 5.25072 0.0507522 4.99317 0.1773C4.89112 0.230767 4.79878 0.303821 4.71621 0.396232C4.62872 0.503346 4.61651 0.5618 4.67968 0.571415C4.97129 0.615166 5.17773 0.719825 5.29923 0.88529L5.34302 0.972971C5.37707 1.03623 5.41108 1.14823 5.44511 1.30881C5.47909 1.46939 5.50103 1.64703 5.51068 1.84162C5.53493 2.19697 5.53493 2.50115 5.51068 2.7542C5.48635 3.00734 5.46337 3.20441 5.44144 3.34556C5.41951 3.48671 5.38672 3.60109 5.34302 3.68866C5.29923 3.77627 5.2701 3.82981 5.2555 3.84925C5.24092 3.86868 5.22877 3.88093 5.21912 3.88573C5.15595 3.90998 5.09026 3.92233 5.02227 3.92233C4.95418 3.92233 4.87162 3.88822 4.77445 3.82004C4.6773 3.75187 4.57648 3.65824 4.47198 3.53898C4.36749 3.41969 4.24964 3.253 4.11838 3.03887C3.98723 2.82475 3.85115 2.57168 3.71023 2.27966L3.59363 2.06789C3.52074 1.93165 3.42117 1.73328 3.29481 1.47295C3.16839 1.21251 3.05664 0.960595 2.95949 0.717242C2.92066 0.615038 2.86232 0.537227 2.78458 0.483683L2.7481 0.461718C2.72385 0.442285 2.68491 0.421649 2.6315 0.399659C2.57801 0.377694 2.5222 0.361943 2.46384 0.352251L0.466599 0.366776C0.262507 0.366776 0.124028 0.413083 0.0511125 0.505571L0.0219309 0.549322C0.00735285 0.57369 0 0.612608 0 0.666178C0 0.719722 0.014578 0.785438 0.0437596 0.863249C0.33532 1.54956 0.652386 2.21144 0.994957 2.84901C1.33753 3.48658 1.63522 4.00016 1.88784 4.38929C2.14052 4.7787 2.39807 5.14622 2.6605 5.49168C2.92293 5.83726 3.09665 6.05872 3.18164 6.15602C3.26673 6.25349 3.33357 6.32637 3.38216 6.37503L3.56442 6.55021C3.68104 6.66704 3.8523 6.80696 4.07828 6.96997C4.3043 7.13309 4.55453 7.29367 4.82908 7.45197C5.10369 7.61002 5.42316 7.739 5.78766 7.83875C6.15211 7.9386 6.50683 7.97867 6.85188 7.95934H7.69016C7.86017 7.94464 7.98897 7.89109 8.07651 7.79868L8.10552 7.76209C8.12502 7.73304 8.14328 7.68791 8.16013 7.62718C8.17718 7.56635 8.18566 7.49933 8.18566 7.42643C8.18068 7.21719 8.19658 7.02861 8.23294 6.86071C8.26927 6.69287 8.31068 6.56632 8.35699 6.48109C8.40328 6.39595 8.45552 6.32409 8.51365 6.26584C8.57191 6.20747 8.61342 6.1721 8.63778 6.15993C8.66198 6.14768 8.68131 6.13937 8.69589 6.13439C8.81251 6.09547 8.94976 6.13316 9.10785 6.24764C9.26581 6.36201 9.41396 6.50324 9.55254 6.67108C9.69105 6.83908 9.85746 7.02756 10.0518 7.2368C10.2463 7.44612 10.4163 7.60171 10.562 7.70407L10.7078 7.79167C10.8051 7.85013 10.9314 7.90367 11.087 7.95233C11.2422 8.00097 11.3782 8.01314 11.495 7.98882L13.361 7.95967C13.5456 7.95967 13.6892 7.92906 13.7911 7.86833C13.8931 7.8075 13.9538 7.74048 13.9733 7.66758C13.9928 7.5946 13.9939 7.51181 13.977 7.41924C13.9597 7.32691 13.9427 7.26234 13.9258 7.22585Z" fill="#2D383F"/>
</g></symbol></svg>